<?xml version="1.0" encoding="utf-8"?>
<!-- Generator: Adobe Illustrator 18.1.1, SVG Export Plug-In . SVG Version: 6.00 Build 0)  -->
<svg version="1.1" id="Layer_1" xmlns="http://www.w3.org/2000/svg" xmlns:xlink="http://www.w3.org/1999/xlink" x="0px" y="0px"
	 viewBox="0 0 102 100" enable-background="new 0 0 102 100" xml:space="preserve">
<path fill-rule="evenodd" clip-rule="evenodd" fill="#FFFFFF" d="M51,0C22.8,0,0,23,0,51.3c0,22.6,14.6,41.9,34.9,48.6
	c2.6,0.5,3.5-1.1,3.5-2.5c0-1.2,0-4.4-0.1-8.7c-14.2,3.1-17.2-6.9-17.2-6.9c-2.3-5.9-5.7-7.5-5.7-7.5c-4.6-3.2,0.4-3.1,0.4-3.1
	c5.1,0.4,7.8,5.3,7.8,5.3c4.5,7.8,11.9,5.6,14.8,4.3c0.5-3.3,1.8-5.6,3.2-6.9c-11.3-1.3-23.2-5.7-23.2-25.3c0-5.6,2-10.2,5.2-13.8
	c-0.5-1.3-2.3-6.5,0.5-13.6c0,0,4.3-1.4,14,5.3c4.1-1.1,8.4-1.7,12.8-1.7c4.3,0,8.7,0.6,12.8,1.7c9.7-6.6,14-5.3,14-5.3
	c2.8,7.1,1,12.3,0.5,13.6c3.3,3.6,5.2,8.2,5.2,13.8c0,19.7-11.9,24-23.3,25.3c1.8,1.6,3.5,4.7,3.5,9.5c0,6.9-0.1,12.4-0.1,14.1
	c0,1.4,0.9,3,3.5,2.5c20.2-6.8,34.8-26,34.8-48.6C102,23,79.2,0,51,0z"/>
</svg>
