<svg xmlns="http://www.w3.org/2000/svg" viewBox="0 0 50 40"><title>home</title><path d="M49.8,20.9l-1.9,2.3a.9.9,0,0,1-.7.3h-.1c-.3,0-.5,0-.6-.2L25,5.3,3.5,23.3a.7.7,0,0,1-.7.2.9.9,0,0,1-.7-.3L.2,20.9a1.9,1.9,0,0,1-.2-.7.9.9,0,0,1,.3-.7L22.6.8a4,4,0,0,1,4.8,0l7.5,6.4V1.1a.9.9,0,0,1,.3-.7.9.9,0,0,1,.7-.3h6a.9.9,0,0,1,.7.3.9.9,0,0,1,.3.7V13.8l6.8,5.7a.9.9,0,0,1,.3.7A1.9,1.9,0,0,1,49.8,20.9ZM42.9,23V38a2.1,2.1,0,0,1-2,2H29V28H21V40H9.1a2.1,2.1,0,0,1-2-2V23h.1L25,8.1,42.8,22.9A.1.1,0,0,1,42.9,23Z" transform="translate(0)"/></svg>