<?xml version="1.0" encoding="utf-8"?>
<!-- Generator: Adobe Illustrator 18.1.1, SVG Export Plug-In . SVG Version: 6.00 Build 0)  -->
<svg version="1.1" id="Layer_1" xmlns="http://www.w3.org/2000/svg" xmlns:xlink="http://www.w3.org/1999/xlink" x="0px" y="0px"
	 viewBox="0 0 100 100" enable-background="new 0 0 100 100" xml:space="preserve">
<g id="Instagram_-_White">
	<path fill="#FFFFFF" d="M100,7.2v85.7c0,4-3.3,7.2-7.4,7.2H7.4C3.3,100,0,96.8,0,92.8V7.2C0,3.2,3.3,0,7.4,0h85.2
		C96.7,0,100,3.2,100,7.2z M70,13.4l0.1,15.8l15.7-0.1V15.4v-2l-2.1,0L70,13.4z M33.6,49.2c0,9,7.4,16.4,16.4,16.4
		c9,0,16.4-7.4,16.4-16.4c0-3.6-1.2-6.9-3.1-9.6c-3-4.1-7.8-6.8-13.3-6.8s-10.3,2.7-13.3,6.8C34.8,42.3,33.6,45.6,33.6,49.2z
		 M87.5,39.6H73.6c1.2,3,1.9,6.2,1.9,9.6c0,14-11.4,25.5-25.5,25.5c-14,0-25.5-11.4-25.5-25.5c0-3.4,0.7-6.6,1.9-9.6H12.5v38.1
		c0,4.9,4,8.9,8.9,8.9h57.1c4.9,0,8.9-4,8.9-8.9V39.6z"/>
</g>
</svg>
