<?xml version="1.0" encoding="utf-8"?>
<!-- Generator: Adobe Illustrator 18.1.1, SVG Export Plug-In . SVG Version: 6.00 Build 0)  -->
<svg version="1.1" id="Layer_1" xmlns="http://www.w3.org/2000/svg" xmlns:xlink="http://www.w3.org/1999/xlink" x="0px" y="0px"
	 viewBox="0 0 105 100" enable-background="new 0 0 105 100" xml:space="preserve">
<g id="LinkedIn_-_White">
</g>
<path fill="#FFFFFF" d="M58.6,42.7v-0.2c0,0.1-0.1,0.2-0.2,0.2H58.6z"/>
<rect x="1.3" y="32.5" fill="#FFFFFF" width="22.5" height="67.5"/>
<path fill="#FFFFFF" d="M12.6,23.3h-0.2C4.9,23.3,0,18.1,0,11.7C0,5,5,0,12.7,0c7.7,0,12.4,5,12.6,11.7
	C25.3,18.1,20.4,23.3,12.6,23.3z"/>
<path fill="#FFFFFF" d="M105,100H82.5V63.9c0-9.1-3.3-15.3-11.4-15.3c-6.2,0-9.9,4.2-11.5,8.2c-0.6,1.4-0.7,3.5-0.7,5.5V100H36.3
	c0,0,0.3-61.1,0-67.5h22.5v9.6c3-4.6,8.3-11.1,20.3-11.1c14.8,0,25.9,9.6,25.9,30.4V100z"/>
</svg>
