<?xml version="1.0" encoding="utf-8"?>
<!-- Generator: Adobe Illustrator 18.1.1, SVG Export Plug-In . SVG Version: 6.00 Build 0)  -->
<svg version="1.1" id="Layer_1" xmlns="http://www.w3.org/2000/svg" xmlns:xlink="http://www.w3.org/1999/xlink" x="0px" y="0px"
	 viewBox="0 0 100 100" enable-background="new 0 0 100 100" xml:space="preserve">
<path id="WordPress_2_" fill="#FFFFFF" d="M0,50c0,27.6,22.4,50,50,50c27.6,0,50-22.4,50-50c0-27.6-22.4-50-50-50
	C22.4,0,0,22.4,0,50z M3.9,50c0-6.7,1.4-13,4-18.8l22,60.3C14.5,84.1,3.9,68.3,3.9,50z M50,96.1c-4.5,0-8.9-0.7-13-1.9L50.8,54
	L65,92.9c0.1,0.2,0.2,0.4,0.3,0.6C60.5,95.2,55.4,96.1,50,96.1z M87.3,49.1c2.6-6.6,3.5-11.8,3.5-16.5c0-1.7-0.1-3.3-0.3-4.7
	c3.6,6.6,5.7,14.1,5.7,22.1c0,17-9.2,31.9-22.9,39.9L87.3,49.1z M77.3,34.9c1.8,3.1,3.8,7,3.8,12.7c0,4-1.2,8.9-3.5,14.9L73,78
	L56.4,28.4c2.8-0.2,5.3-0.4,5.3-0.4c2.5-0.3,2.2-3.9-0.3-3.8c0,0-7.5,0.6-12.3,0.6c-4.5,0-12.2-0.6-12.2-0.6
	c-2.5-0.1-2.8,3.7-0.3,3.8c0,0,2.4,0.3,4.8,0.4l7.2,19.7L38.5,78.3l-16.8-50c2.8-0.2,5.3-0.4,5.3-0.4c2.5-0.3,2.2-3.9-0.3-3.8
	c0,0-7.5,0.6-12.3,0.6c-0.9,0-1.9,0-3-0.1C19.7,12.1,33.9,3.9,50,3.9c12,0,23,4.6,31.2,12.1c-0.2,0-0.4,0-0.6,0
	c-4.5,0-7.8,3.9-7.8,8.2C72.8,27.9,75,31.1,77.3,34.9z"/>
</svg>
