<?xml version="1.0" encoding="utf-8"?>
<!-- Generator: Adobe Illustrator 22.0.1, SVG Export Plug-In . SVG Version: 6.00 Build 0)  -->
<svg version="1.1" id="Layer_1" xmlns="http://www.w3.org/2000/svg" xmlns:xlink="http://www.w3.org/1999/xlink" x="0px" y="0px"
	 viewBox="0 0 290 100" style="enable-background:new 0 0 290 100;" xml:space="preserve">
<style type="text/css">
	.st0{display:none;}
	.st1{display:inline;}
	.st2{display:inline;fill:#FFFFFF;}
	.st3{opacity:0.7;fill:#FFFFFF;}
	.st4{fill:#FFFFFF;}
</style>
<g id="Circle" class="st0">
	<circle class="st1" cx="30" cy="-67" r="30"/>
	<path class="st2" d="M35.3-63l9.5,0.6c-0.4,4.2-2,7.4-4.6,9.6c-2.6,2.2-5.9,3.3-9.7,3.3c-4.6,0-8.3-1.5-11.2-4.6
		c-2.8-3.1-4.3-7.3-4.3-12.6c0-5.3,1.3-9.6,4-12.9c2.7-3.3,6.4-4.9,11.2-4.9c4.5,0,7.9,1.2,10.4,3.7c2.4,2.5,3.8,5.8,4.1,9.9
		l-9.7,0.5c0-2.3-0.4-3.9-1.3-4.9c-0.9-1-1.9-1.5-3.1-1.5c-3.3,0-4.9,3.3-4.9,9.9c0,3.7,0.4,6.2,1.3,7.5c0.9,1.3,2.1,2,3.6,2
		C33.5-57.4,35-59.3,35.3-63z"/>
</g>
<path class="st3" d="M113.5,1.5l-23.4,97H77.9L56.8,23.2L37.1,98.5H24.6L0,1.5h12.6L32,80.1L52.6,1.5h9.9l22.2,78.6l18.1-78.6H113.5
	z"/>
<path class="st3" d="M139.8,98.5h-12.2v-97h34.4c10.8,0,18.7,2.9,23.8,8.8c5.1,5.9,7.7,12.5,7.7,20c0,8.3-2.8,15.2-8.4,20.7
	c-5.6,5.4-12.9,8.2-21.9,8.2h-23.5V98.5z M139.8,49h22.3c5.7,0,10.4-1.7,13.9-5.2c3.5-3.4,5.3-8,5.3-13.6c0-4.8-1.6-9.1-4.7-12.9
	c-3.1-3.8-7.7-5.7-13.6-5.7h-23.2V49z"/>
<path class="st4" d="M262.8,61.5l27.2,1.6c-1.3,11.9-5.7,21-13.2,27.4c-7.5,6.3-16.7,9.5-27.7,9.5c-13.2,0-23.8-4.4-31.9-13.1
	c-8.1-8.7-12.2-20.8-12.2-36.1c0-15.2,3.8-27.5,11.5-36.8c7.7-9.3,18.4-14,32.1-14c12.8,0,22.7,3.6,29.6,10.7
	c6.9,7.1,10.8,16.5,11.7,28.3l-27.8,1.5c0-6.5-1.2-11.2-3.7-14.1c-2.5-2.9-5.4-4.3-8.8-4.3c-9.4,0-14.1,9.4-14.1,28.3
	c0,10.6,1.2,17.7,3.7,21.5c2.4,3.8,5.9,5.7,10.3,5.7C257.4,77.5,261.8,72.2,262.8,61.5z"/>
</svg>
